# ProBuilder 4.5.2
# https://unity3d.com/unity/features/worldbuilding/probuilder
# 22/06/2022 19:58:45

mtllib ./acerto.mtl
o acerto

g acerto
v -1.357307 0.2776498 0.5
v -1.357307 -0.5216562 0.5
v -1.357307 0.2776498 -0.5
v -1.357307 -0.5216562 -0.5
v 1.357307 -0.5216562 0.5
v 1.357307 0.2764859 -0.5
v 1.357307 -0.5216562 -0.5
v 1.357307 0.2764859 0.5
v 0.02830124 0.8971253 -0.5
v 0.02830124 0.8971253 0.5
v 1.257307 0.2128186 0.5
v 0.02739555 0.7871814 0.5
v -1.257307 0.2128186 0.5
v -1.257307 0.2128186 -0.5
v 0.02739555 0.7871814 -0.5
v 1.257307 0.2128186 -0.5
v 1.257306 -0.4216562 -0.5
v 1.257306 -0.4216562 0.5
v -1.257306 -0.4216562 0.5
v -1.257306 -0.4216562 -0.5

vt 0.5 0.2776498
vt 0.5 -0.5216562
vt -0.5 0.2776498
vt -0.5 -0.5216562
vt 0.5 0.2764859
vt -0.5 0.2764859
vt 1.357307 0.5
vt -1.357307 -0.5
vt -1.357307 0.5
vt 1.357307 -0.5
vt 1.125787 -0.5
vt -0.3919944 -0.5
vt -0.3919944 0.5
vt 1.125787 0.5
vt 0.3539578 -0.5
vt -1.112824 -0.5
vt -1.112824 0.5
vt 0.3539578 0.5
vt 1.257307 0.2128186
vt 0.02739555 0.7871814
vt 1.357307 0.2764859
vt 0.02830124 0.8971253
vt -1.257307 0.2128186
vt -1.357307 0.2776498
vt -0.02739555 0.7871814
vt 1.357307 0.2776498
vt -0.02830124 0.8971253
vt -1.357307 0.2764859
vt -0.3082578 0.5
vt 1.049157 -0.5
vt -0.3082578 -0.5
vt 1.049157 0.5
vt -1.060955 0.5
vt 0.3462944 -0.5
vt -1.060955 -0.5
vt 0.3462944 0.5
vt 0.5 0.2128189
vt -0.5 -0.4216559
vt -0.5 0.2128189
vt 0.5 -0.4216559
vt -1.257306 0.5
vt 1.257306 -0.5
vt -1.257306 -0.5
vt 1.257306 0.5
vt -1.257306 -0.4216562
vt 1.257306 -0.4216562
vt -1.357307 -0.5216562
vt 1.357307 -0.5216562

vn -1 0 0
vn 1 0 0
vn 0 -1 0
vn -0.4081456 0.9129169 0
vn 0.42313 0.906069 0
vn 0 0 1
vn 0 0 -1
vn -0.42313 -0.906069 0
vn 0.4081455 -0.9129168 0
vn 0 1 0

usemtl Collider
f 3/3/1 2/2/1 1/1/1
f 2/2/1 3/3/1 4/4/1
f 7/2/2 6/5/2 5/4/2
f 8/6/2 5/4/2 6/5/2
f 2/9/3 4/8/3 5/7/3
f 4/8/3 7/10/3 5/7/3
f 10/13/4 9/12/4 3/11/4
f 10/13/4 3/11/4 1/14/4
f 8/17/5 6/16/5 9/15/5
f 8/17/5 9/15/5 10/18/5
f 8/21/6 12/20/6 11/19/6
f 8/21/6 10/22/6 12/20/6
f 10/22/6 13/23/6 12/20/6
f 10/22/6 1/24/6 13/23/6
f 3/26/7 15/25/7 14/19/7
f 3/26/7 9/27/7 15/25/7
f 9/27/7 16/23/7 15/25/7
f 9/27/7 6/28/7 16/23/7
f 15/31/8 16/30/8 12/29/8
f 16/30/8 11/32/8 12/29/8
f 14/35/9 15/34/9 13/33/9
f 15/34/9 12/36/9 13/33/9
f 16/39/1 17/38/1 11/37/1
f 17/38/1 18/40/1 11/37/1
f 13/39/2 19/38/2 14/37/2
f 19/38/2 20/40/2 14/37/2
f 17/43/10 20/42/10 18/41/10
f 20/42/10 19/44/10 18/41/10
f 7/47/7 20/46/7 17/45/7
f 7/47/7 4/48/7 20/46/7
f 6/28/7 17/45/7 16/23/7
f 6/28/7 7/47/7 17/45/7
f 4/48/7 14/19/7 20/46/7
f 4/48/7 3/26/7 14/19/7
f 1/24/6 19/45/6 13/23/6
f 1/24/6 2/47/6 19/45/6
f 2/47/6 18/46/6 19/45/6
f 2/47/6 5/48/6 18/46/6
f 5/48/6 11/19/6 18/46/6
f 5/48/6 8/21/6 11/19/6

