# ProBuilder 4.5.2
# https://unity3d.com/unity/features/worldbuilding/probuilder
# 22/06/2022 21:02:47

mtllib ./acerto_4.mtl
o acerto_4

g acerto (5)
v -1.357307 -0.3218297 0.5
v -1.357307 -0.5216562 0.5
v -1.357307 -0.5216562 -0.5
v -1.357307 -0.3218297 -0.5
v -1.257307 -0.2630375 -0.5
v -1.257306 -0.4216562 -0.5
v -1.257306 -0.4216562 0.5
v -1.257307 -0.2630375 0.5
v -1.100143 -0.4216562 -0.5
v -1.100143 -0.4216562 0.5
v -1.187643 -0.5216562 0.5
v -1.187643 -0.5216562 -0.5

vt 0.5 -0.3218297
vt 0.5 -0.5216562
vt -0.5 -0.5216562
vt -0.5 -0.3218297
vt 0.5 -0.2630365
vt 0.5 -0.4216552
vt -0.5 -0.4216552
vt -0.5 -0.2630365
vt -1.257307 -0.4216561
vt -1.357307 -0.5216561
vt -1.357307 -0.3218296
vt -1.257307 -0.2630374
vt 1.357307 -0.3218296
vt 1.357307 -0.521656
vt 1.257306 -0.4216561
vt 1.257307 -0.2630374
vt 1.257306 -0.5
vt 1.100143 -0.5
vt 1.100143 0.5
vt 1.257306 0.5
vt -1.357307 -0.5
vt -1.357307 0.5
vt -1.187643 0.5
vt -1.187643 -0.5
vt -1.187643 -0.5216562
vt -1.100143 -0.4216562
vt 1.187643 -0.5216562
vt 1.100143 -0.4216562
vt -0.5 -1.041778
vt -0.5 -1.174655
vt 0.5 -1.041778
vt 0.5 -1.174655
vt 1.333179 0.5
vt 1.217176 0.5
vt 1.333179 -0.5
vt 1.217176 -0.5

vn -1 0 0
vn 1 7.515463E-07 0
vn 1.298017E-07 -1.685137E-07 1
vn 1.298017E-07 -1.685137E-07 -1
vn 0 1 0
vn 0 -1 0
vn 0.7525764 -0.6585051 0
vn -0.5068194 0.8620523 0

usemtl Collider
f 1/1/1 4/4/1 3/3/1 2/2/1
f 8/8/2 7/7/2 6/6/2 5/5/2
f 8/12/3 1/11/3 2/10/3 7/9/3
f 6/15/4 3/14/4 4/13/4 5/16/4
f 7/20/5 10/19/5 9/18/5 6/17/5
f 12/24/6 11/23/6 2/22/6 3/21/6
f 7/9/3 2/10/3 11/25/3 10/26/3
f 9/28/4 12/27/4 3/14/4 6/15/4
f 12/32/7 9/31/7 10/29/7 11/30/7
f 5/36/8 4/35/8 1/33/8 8/34/8

