# ProBuilder 4.5.2
# https://unity3d.com/unity/features/worldbuilding/probuilder
# 22/06/2022 20:56:44

mtllib ./acerto_1.mtl
o acerto_1

g acerto (2)
v -0.1448997 0.8196908 -0.5
v 0.02830124 0.8971253 -0.5
v 0.02830124 0.8971253 0.5
v -0.1448997 0.8196908 0.5
v -0.1331922 0.715386 0.5
v 0.02739555 0.7871814 0.5
v 0.02739555 0.7871814 -0.5
v -0.1331922 0.715386 -0.5
v 0.1944269 0.8195454 -0.5
v 0.1944269 0.8195454 0.5
v 0.1811344 0.715386 0.5
v 0.1811344 0.715386 -0.5

vt -0.2022719 -0.5
vt -0.3919945 -0.5
vt -0.3919945 0.5
vt -0.2022719 0.5
vt 0.1703882 0.5
vt 0.3462944 0.5
vt 0.3462944 -0.5
vt 0.1703882 -0.5
vt 0.02739555 0.7871814
vt -0.1331922 0.715386
vt -0.1448997 0.8196908
vt 0.02830124 0.8971253
vt -0.02739555 0.7871814
vt -0.02830124 0.8971253
vt 0.1448997 0.8196908
vt 0.1331922 0.715386
vt 0.3539578 -0.5
vt 0.1706101 -0.5
vt 0.1706101 0.5
vt 0.3539578 0.5
vt -0.3082578 -0.5
vt -0.3082578 0.5
vt -0.138581 0.5
vt -0.138581 -0.5
vt 0.1811344 0.715386
vt 0.1944269 0.8195454
vt -0.1811344 0.715386
vt -0.1944269 0.8195454
vt -0.5 0.8375648
vt -0.5 0.7325607
vt 0.5 0.8375648
vt 0.5 0.7325607
vt 0.5 0.7257784
vt 0.5 0.8307382
vt -0.5 0.7257784
vt -0.5 0.8307382

vn -0.4081457 0.9129168 0
vn 0.4081455 -0.9129169 0
vn 0 0 1
vn 0 0 -1
vn 0.42313 0.906069 0
vn -0.42313 -0.906069 0
vn 0.9919551 -0.1265902 0
vn -0.9937596 -0.1115429 0

usemtl Collider
f 4/4/1 3/3/1 2/2/1 1/1/1
f 7/7/2 6/6/2 5/5/2 8/8/2
f 3/12/3 4/11/3 5/10/3 6/9/3
f 8/16/4 1/15/4 2/14/4 7/13/4
f 3/20/5 10/19/5 9/18/5 2/17/5
f 12/24/6 11/23/6 6/22/6 7/21/6
f 3/12/3 6/9/3 11/25/3 10/26/3
f 9/28/4 12/27/4 7/13/4 2/14/4
f 12/32/7 9/31/7 10/29/7 11/30/7
f 1/36/8 8/35/8 5/33/8 4/34/8

